<svg width="11" height="7" viewBox="0 0 11 7" fill="none" xmlns="http://www.w3.org/2000/svg">
<path d="M1.45723 2.5594C2.1191 2.5594 2.65565 2.02285 2.65565 1.36098C2.65565 0.699116 2.1191 0.162567 1.45723 0.162567C0.795368 0.162567 0.25882 0.699116 0.25882 1.36098C0.25882 2.02285 0.795368 2.5594 1.45723 2.5594Z" fill="black"/>
<path d="M9.0472 2.5594C9.70907 2.5594 10.2456 2.02285 10.2456 1.36098C10.2456 0.699116 9.70907 0.162567 9.0472 0.162567C8.38533 0.162567 7.84879 0.699116 7.84879 1.36098C7.84879 2.02285 8.38533 2.5594 9.0472 2.5594Z" fill="black"/>
<path d="M7.24957 3.77063H3.28122C3.06059 3.77063 2.88174 3.94948 2.88174 4.1701C2.90554 5.46954 3.96573 6.51051 5.26539 6.51051C6.56505 6.51051 7.62525 5.46954 7.64904 4.1701C7.64904 3.94948 7.47019 3.77063 7.24957 3.77063Z" fill="black"/>
</svg>
